# xmcd
#
# Track frame offsets:
#	150
#	19193
#	35840
#	56094
#	75676
#	96619
#	117378
#	138992
#	157076
#	179838
#	199272
#	222006
#	240260
#	257314
#	278376
#	300969
#
# Disc length: 4352 seconds
#
# Revision: 1
# Processed by: cddbd v1.5.1PL2 Copyright (c) Steve Scherf et al.
# Submitted via: audiograbber 1.80
#
DISCID=de10fe10
DTITLE=A.G. Blue - Candy Box
DYEAR=1900
DGENRE=
TTITLE0=Who Is It? (If If Ain't Mary)
TTITLE1=On The Inside
TTITLE2=Cand Box
TTITLE3=My Guy
TTITLE4=Tomorrow
TTITLE5=Don't Let The Sun Go Down
TTITLE6=Wrapped Around Your Finger
TTITLE7=Homeless
TTITLE8=Spinnin' Top
TTITLE9=Simply Beautiful
TTITLE10=Can We Go Back?
TTITLE11=Open Up Your Heart
TTITLE12=Roses
TTITLE13=Magic
TTITLE14=Wrapped Reprise
TTITLE15=Shout Outs
EXTD=R&B\nEnlisted in the US Army at Fort Drum, NY during the time of her recor
EXTD=ding. The Army backed her career and gave her leave to record the album.
EXTT0=
EXTT1=
EXTT2=
EXTT3=
EXTT4=
EXTT5=
EXTT6=
EXTT7=
EXTT8=
EXTT9=
EXTT10=
EXTT11=
EXTT12=
EXTT13=
EXTT14=
EXTT15=
PLAYORDER=
